<svg width="36" height="36" viewBox="0 0 36 36" fill="none" xmlns="http://www.w3.org/2000/svg">
<circle cx="18" cy="18" r="18" fill="#003D31"/>
<path d="M11.0762 12.6855C11.0762 12.2193 11.2399 11.8347 11.5673 11.5317C11.8948 11.2287 12.3205 11.0771 12.8444 11.0771C13.3589 11.0771 13.7752 11.2263 14.0933 11.5247C14.4208 11.8324 14.5845 12.2333 14.5845 12.7275C14.5845 13.1751 14.4254 13.548 14.1074 13.8464C13.7799 14.1541 13.3496 14.3079 12.8163 14.3079H12.8023C12.2877 14.3079 11.8714 14.1541 11.5533 13.8464C11.2352 13.5387 11.0762 13.1517 11.0762 12.6855ZM11.2586 24.9233V15.5806H14.374V24.9233H11.2586ZM16.1001 24.9233H19.2155V19.7065C19.2155 19.3802 19.2529 19.1284 19.3277 18.9513C19.4587 18.6343 19.6575 18.3662 19.9241 18.1471C20.1908 17.928 20.5252 17.8184 20.9275 17.8184C21.9753 17.8184 22.4992 18.5224 22.4992 19.9303V24.9233H25.6146V19.5667C25.6146 18.1867 25.2872 17.1401 24.6323 16.4268C23.9774 15.7135 23.112 15.3569 22.0362 15.3569C20.8293 15.3569 19.8891 15.8744 19.2155 16.9093V16.9373H19.2014L19.2155 16.9093V15.5806H16.1001C16.1188 15.879 16.1281 16.8067 16.1281 18.3639C16.1281 19.921 16.1188 22.1074 16.1001 24.9233Z" fill="white"/>
</svg>
