<svg width="36" height="36" viewBox="0 0 36 36" fill="none" xmlns="http://www.w3.org/2000/svg">
<circle cx="18" cy="18" r="18" fill="#003D31"/>
<path d="M27 12.7163C26.3306 12.9943 25.6174 13.1786 24.8737 13.268C25.6388 12.8356 26.2226 12.1561 26.4971 11.337C25.7839 11.7396 24.9964 12.024 24.1571 12.1827C23.4799 11.5 22.5146 11.0771 21.4616 11.0771C19.4186 11.0771 17.7739 12.6471 17.7739 14.5717C17.7739 14.8486 17.7986 15.1149 17.8594 15.3684C14.7915 15.2267 12.0769 13.8347 10.2533 11.7141C9.93487 12.237 9.74813 12.8356 9.74813 13.48C9.74813 14.6899 10.4062 15.7625 11.3872 16.3834C10.7944 16.3728 10.2127 16.2098 9.72 15.9531C9.72 15.9638 9.72 15.9776 9.72 15.9915C9.72 17.6892 10.9991 19.0994 12.6765 19.4242C12.3761 19.502 12.0487 19.5393 11.709 19.5393C11.4727 19.5393 11.2342 19.5265 11.0104 19.4796C11.4885 20.8632 12.8453 21.8803 14.4585 21.9134C13.203 22.8432 11.6089 23.4034 9.88313 23.4034C9.5805 23.4034 9.29025 23.3906 9 23.3555C10.6346 24.3535 12.5719 24.9233 14.661 24.9233C21.4515 24.9233 25.164 19.5979 25.164 14.9818C25.164 14.8273 25.1584 14.6782 25.1505 14.5302C25.8829 14.0381 26.4982 13.4235 27 12.7163Z" fill="white"/>
</svg>
